<svg width="160" height="18" viewBox="0 0 160 18" fill="none" xmlns="http://www.w3.org/2000/svg">
<g clip-path="url(#clip0_0_8)">
<path d="M6.41776 17.5386C5.20097 17.5386 4.13431 17.3226 3.21776 16.8906C2.30122 16.4586 1.58221 15.8426 1.06073 15.0426C0.555046 14.2426 0.294306 13.2906 0.278503 12.1866H2.93332C2.94912 13.0826 3.25727 13.8426 3.85776 14.4666C4.45825 15.0906 5.30369 15.4026 6.39406 15.4026C7.35801 15.4026 8.10859 15.1706 8.64593 14.7066C9.19897 14.2266 9.47556 13.6186 9.47556 12.8826C9.47556 12.2906 9.34119 11.8106 9.07259 11.4426C8.81971 11.0746 8.46415 10.7706 8.00593 10.5306C7.56341 10.2906 7.04986 10.0746 6.46517 9.8826C5.88048 9.6906 5.26418 9.48263 4.61628 9.2586C3.33628 8.8266 2.37233 8.26658 1.72443 7.5786C1.09233 6.8906 0.776283 5.9866 0.776283 4.8666C0.760476 3.9226 0.973809 3.0986 1.41628 2.3946C1.87455 1.6906 2.50665 1.1466 3.31258 0.7626C4.13431 0.362597 5.09036 0.162598 6.18073 0.162598C7.25529 0.162598 8.19556 0.362597 9.00148 0.7626C9.82319 1.1626 10.4632 1.7226 10.9215 2.4426C11.3797 3.1466 11.6167 3.9706 11.6326 4.9146H8.97778C8.97778 4.4826 8.86711 4.0746 8.64593 3.6906C8.42467 3.2906 8.10074 2.9626 7.67408 2.7066C7.24739 2.4506 6.72591 2.3226 6.10962 2.3226C5.31949 2.3066 4.66369 2.5066 4.14221 2.9226C3.63653 3.3386 3.38369 3.9146 3.38369 4.6506C3.38369 5.3066 3.57332 5.8106 3.95258 6.1626C4.33184 6.5146 4.85332 6.8106 5.51702 7.0506C6.18073 7.2746 6.93925 7.53863 7.79259 7.8426C8.6143 8.11463 9.34911 8.4426 9.99704 8.8266C10.6449 9.2106 11.1585 9.7146 11.5378 10.3386C11.9328 10.9626 12.1304 11.7546 12.1304 12.7146C12.1304 13.5626 11.917 14.3546 11.4904 15.0906C11.0637 15.8106 10.4237 16.4026 9.57037 16.8666C8.71704 17.3146 7.66615 17.5386 6.41776 17.5386Z" fill="#111010"/>
<path d="M18.4639 17.2507V2.51469H13.5572V0.450684H25.8594V2.51469H20.9764V17.2507H18.4639Z" fill="#111010"/>
<path d="M34.4211 17.5387C33.2359 17.5387 32.1613 17.3067 31.1974 16.8427C30.2493 16.3627 29.4907 15.6347 28.9219 14.6587C28.3687 13.6827 28.0922 12.4427 28.0922 10.9387V0.450684H30.6048V10.9627C30.6048 12.4347 30.9524 13.5147 31.6478 14.2027C32.343 14.8907 33.2833 15.2347 34.4685 15.2347C35.6379 15.2347 36.5702 14.8907 37.2656 14.2027C37.9608 13.5147 38.3085 12.4347 38.3085 10.9627V0.450684H40.8211V10.9387C40.8211 12.4427 40.5287 13.6827 39.9441 14.6587C39.3752 15.6347 38.6008 16.3627 37.6211 16.8427C36.6571 17.3067 35.5904 17.5387 34.4211 17.5387Z" fill="#111010"/>
<path d="M44.0441 17.2507V0.450684H49.4248C51.3685 0.450684 52.9645 0.794682 54.213 1.48269C55.4771 2.17068 56.4095 3.14668 57.01 4.41069C57.6263 5.65869 57.9344 7.14669 57.9344 8.87469C57.9344 10.5867 57.6263 12.0747 57.01 13.3387C56.4095 14.5867 55.4771 15.5547 54.213 16.2427C52.9645 16.9147 51.3685 17.2507 49.4248 17.2507H44.0441ZM46.5567 15.0907H49.33C50.8312 15.0907 52.0164 14.8427 52.8856 14.3467C53.7704 13.8507 54.4026 13.1387 54.7818 12.2107C55.1769 11.2827 55.3744 10.1707 55.3744 8.87469C55.3744 7.57869 55.1769 6.45868 54.7818 5.51469C54.4026 4.57068 53.7704 3.85068 52.8856 3.35469C52.0164 2.84268 50.8312 2.58669 49.33 2.58669H46.5567V15.0907Z" fill="#111010"/>
<path d="M60.7108 17.2507V0.450684H63.2233V17.2507H60.7108Z" fill="#111010"/>
<path d="M74.2467 17.5386C72.6032 17.5386 71.1652 17.1706 69.9326 16.4346C68.7 15.6986 67.736 14.6826 67.0408 13.3866C66.3454 12.0746 65.9978 10.5626 65.9978 8.8506C65.9978 7.1386 66.3454 5.6346 67.0408 4.3386C67.736 3.0266 68.7 2.0026 69.9326 1.2666C71.1652 0.530598 72.6032 0.162598 74.2467 0.162598C75.8904 0.162598 77.3282 0.530598 78.5608 1.2666C79.7934 2.0026 80.7497 3.0266 81.4289 4.3386C82.1245 5.6346 82.4719 7.1386 82.4719 8.8506C82.4719 10.5626 82.1245 12.0746 81.4289 13.3866C80.7497 14.6826 79.7934 15.6986 78.5608 16.4346C77.3282 17.1706 75.8904 17.5386 74.2467 17.5386ZM74.2467 15.2586C75.3845 15.2586 76.3719 15.0026 77.2097 14.4906C78.063 13.9786 78.7267 13.2426 79.2008 12.2826C79.6748 11.3226 79.9119 10.1786 79.9119 8.8506C79.9119 7.52258 79.6748 6.3786 79.2008 5.4186C78.7267 4.4586 78.063 3.7226 77.2097 3.2106C76.3719 2.6986 75.3845 2.4426 74.2467 2.4426C73.1089 2.4426 72.1134 2.6986 71.26 3.2106C70.4067 3.7226 69.743 4.4586 69.2689 5.4186C68.8106 6.3786 68.5815 7.52258 68.5815 8.8506C68.5815 10.1786 68.8106 11.3226 69.2689 12.2826C69.743 13.2426 70.4067 13.9786 71.26 14.4906C72.1134 15.0026 73.1089 15.2586 74.2467 15.2586Z" fill="#111010"/>
<path d="M91.243 17.2507V0.450684H97.0504C98.3467 0.450684 99.4208 0.674683 100.274 1.12269C101.127 1.55469 101.76 2.15469 102.17 2.92269C102.597 3.67468 102.81 4.53069 102.81 5.49069C102.81 6.40269 102.605 7.24269 102.194 8.01069C101.799 8.76271 101.175 9.36271 100.321 9.81069C99.4682 10.2587 98.3778 10.4827 97.0504 10.4827H93.7556V17.2507H91.243ZM93.7556 8.39469H96.9319C98.1171 8.39469 98.963 8.13871 99.4682 7.62669C99.9896 7.09869 100.25 6.38668 100.25 5.49069C100.25 4.56268 99.9896 3.84268 99.4682 3.33069C98.963 2.80269 98.1171 2.53869 96.9319 2.53869H93.7556V8.39469Z" fill="#111010"/>
<path d="M112.95 17.5386C111.307 17.5386 109.869 17.1706 108.636 16.4346C107.404 15.6986 106.44 14.6826 105.744 13.3866C105.049 12.0746 104.701 10.5626 104.701 8.8506C104.701 7.1386 105.049 5.6346 105.744 4.3386C106.44 3.0266 107.404 2.0026 108.636 1.2666C109.869 0.530598 111.307 0.162598 112.95 0.162598C114.594 0.162598 116.032 0.530598 117.264 1.2666C118.497 2.0026 119.453 3.0266 120.133 4.3386C120.828 5.6346 121.176 7.1386 121.176 8.8506C121.176 10.5626 120.828 12.0746 120.133 13.3866C119.453 14.6826 118.497 15.6986 117.264 16.4346C116.032 17.1706 114.594 17.5386 112.95 17.5386ZM112.95 15.2586C114.088 15.2586 115.076 15.0026 115.913 14.4906C116.767 13.9786 117.43 13.2426 117.904 12.2826C118.379 11.3226 118.616 10.1786 118.616 8.8506C118.616 7.52258 118.379 6.3786 117.904 5.4186C117.43 4.4586 116.767 3.7226 115.913 3.2106C115.076 2.6986 114.088 2.4426 112.95 2.4426C111.813 2.4426 110.817 2.6986 109.964 3.2106C109.11 3.7226 108.447 4.4586 107.973 5.4186C107.514 6.3786 107.285 7.52258 107.285 8.8506C107.285 10.1786 107.514 11.3226 107.973 12.2826C108.447 13.2426 109.11 13.9786 109.964 14.4906C110.817 15.0026 111.813 15.2586 112.95 15.2586Z" fill="#111010"/>
<path d="M123.975 17.2507V0.450684H126.487V15.2347H134.025V17.2507H123.975Z" fill="#111010"/>
<path d="M136.729 17.2507V0.450684H139.241V15.2347H146.779V17.2507H136.729Z" fill="#111010"/>
<path d="M151.342 17.2507V11.0587L145.843 0.450684H148.687L152.599 8.56269L156.486 0.450684H159.307L153.855 11.0587V17.2507H151.342Z" fill="#111010"/>
</g>
<defs>
<clipPath id="clip0_0_8">
<rect width="160" height="18" fill="white"/>
</clipPath>
</defs>
</svg>
